<svg width="70" height="70" viewBox="0 0 70 70" fill="none" xmlns="http://www.w3.org/2000/svg">
<path d="M60.4854 29.9801V64.5231C60.4854 65.4875 60.1023 66.4123 59.4204 67.0942C58.7385 67.7761 57.8136 68.1592 56.8493 68.1592H5.94373C4.97937 68.1592 4.05451 67.7761 3.37261 67.0942C2.69071 66.4123 2.30762 65.4875 2.30762 64.5231V13.6176C2.30762 12.6532 2.69071 11.7283 3.37261 11.0464C4.05451 10.3645 4.97937 9.98145 5.94373 9.98145H39.3305" stroke="#90A1B9" stroke-width="2.93333" stroke-miterlimit="10" stroke-linecap="round" stroke-linejoin="round"/>
<path d="M53.213 9.98086H67.7575M60.4762 2.33594V16.8804M13.2158 48.2146L24.1242 33.6156L29.5783 39.0698L35.9415 29.0704L49.5769 48.2146H13.2158Z" stroke="#90A1B9" stroke-width="2.93333" stroke-miterlimit="10" stroke-linecap="round" stroke-linejoin="round"/>
</svg>
