<svg width="114" height="38" viewBox="0 0 114 38" fill="none" xmlns="http://www.w3.org/2000/svg">
<path d="M4.35429 32.9332C3.83571 32.9332 3.35587 32.8616 2.91478 32.7186C2.47965 32.5696 2.10413 32.358 1.78821 32.0838C1.47229 31.8036 1.22492 31.4609 1.0461 31.0555C0.873242 30.6502 0.786812 30.1942 0.786812 29.6876C0.786812 29.2226 0.879203 28.7964 1.06398 28.409C1.24877 28.0156 1.50806 27.6728 1.84186 27.3808C2.17565 27.0887 2.56906 26.8622 3.02207 26.7013C3.48105 26.5403 3.97877 26.4598 4.51523 26.4598C4.93844 26.4598 5.32588 26.5075 5.67756 26.6029C6.03521 26.6983 6.35112 26.8234 6.62532 26.9784C6.90547 27.1334 7.13495 27.3063 7.31378 27.497L6.39285 28.4984C6.22595 28.3613 6.04713 28.2421 5.85639 28.1408C5.66564 28.0394 5.45702 27.959 5.23051 27.8994C5.00997 27.8338 4.76856 27.801 4.50629 27.801C4.20229 27.801 3.91916 27.8487 3.65689 27.9441C3.40058 28.0394 3.17407 28.1735 2.97737 28.3464C2.78663 28.5133 2.63761 28.713 2.53032 28.9455C2.42898 29.172 2.37832 29.4193 2.37832 29.6876C2.37832 30.0035 2.43494 30.2807 2.5482 30.5191C2.66145 30.7575 2.81643 30.9572 3.01313 31.1181C3.20984 31.2731 3.43634 31.3923 3.69265 31.4758C3.94896 31.5533 4.22315 31.592 4.51523 31.592C4.77154 31.592 5.00997 31.5622 5.23051 31.5026C5.45702 31.443 5.65074 31.3625 5.81168 31.2612C5.97262 31.1539 6.09779 31.0287 6.1872 30.8857C6.28257 30.7426 6.33026 30.5846 6.33026 30.4118V30.2151L6.5359 30.5548H4.38111V29.3836H7.76977C7.78169 29.4611 7.79063 29.5534 7.79659 29.6607C7.80255 29.768 7.80553 29.8694 7.80553 29.9647C7.81149 30.0541 7.81447 30.1167 7.81447 30.1525C7.81447 30.5876 7.73102 30.9781 7.56412 31.3238C7.39723 31.6695 7.1588 31.9616 6.84884 32.2C6.54485 32.4325 6.18124 32.6143 5.75803 32.7454C5.33482 32.8706 4.86691 32.9332 4.35429 32.9332ZM13.635 32.9332C13.0985 32.9332 12.6067 32.8527 12.1597 32.6918C11.7186 32.5249 11.3341 32.2954 11.0063 32.0033C10.6844 31.7112 10.4341 31.3685 10.2552 30.9751C10.0764 30.5757 9.98701 30.1465 9.98701 29.6876C9.98701 29.2226 10.0764 28.7935 10.2552 28.4001C10.4341 28.0066 10.6874 27.6639 11.0152 27.3718C11.3431 27.0798 11.7275 26.8532 12.1686 26.6923C12.6097 26.5254 13.0955 26.442 13.626 26.442C14.1625 26.442 14.6513 26.5224 15.0923 26.6834C15.5394 26.8443 15.9239 27.0738 16.2457 27.3718C16.5736 27.6639 16.8239 28.0066 16.9968 28.4001C17.1756 28.7935 17.265 29.2226 17.265 29.6876C17.265 30.1525 17.1756 30.5817 16.9968 30.9751C16.8239 31.3685 16.5736 31.7142 16.2457 32.0122C15.9239 32.3043 15.5394 32.5308 15.0923 32.6918C14.6513 32.8527 14.1655 32.9332 13.635 32.9332ZM13.635 31.5026C13.939 31.5026 14.2191 31.4579 14.4754 31.3685C14.7317 31.2731 14.9523 31.145 15.1371 30.984C15.3218 30.8171 15.4649 30.6234 15.5662 30.4028C15.6676 30.1823 15.7182 29.9439 15.7182 29.6876C15.7182 29.4313 15.6676 29.1928 15.5662 28.9723C15.4649 28.7517 15.3218 28.561 15.1371 28.4001C14.9523 28.2332 14.7287 28.105 14.4665 28.0156C14.2102 27.9202 13.933 27.8725 13.635 27.8725C13.331 27.8725 13.0508 27.9202 12.7945 28.0156C12.5382 28.105 12.3147 28.2302 12.1239 28.3911C11.9332 28.552 11.7871 28.7458 11.6858 28.9723C11.5904 29.1928 11.5428 29.4313 11.5428 29.6876C11.5428 29.9439 11.5904 30.1853 11.6858 30.4118C11.7871 30.6323 11.9332 30.8231 12.1239 30.984C12.3147 31.145 12.5382 31.2731 12.7945 31.3685C13.0508 31.4579 13.331 31.5026 13.635 31.5026ZM23.1233 32.9332C22.5868 32.9332 22.0951 32.8527 21.648 32.6918C21.2069 32.5249 20.8225 32.2954 20.4946 32.0033C20.1727 31.7112 19.9224 31.3685 19.7436 30.9751C19.5648 30.5757 19.4753 30.1465 19.4753 29.6876C19.4753 29.2226 19.5648 28.7935 19.7436 28.4001C19.9224 28.0066 20.1757 27.6639 20.5036 27.3718C20.8314 27.0798 21.2159 26.8532 21.657 26.6923C22.0981 26.5254 22.5838 26.442 23.1143 26.442C23.6508 26.442 24.1396 26.5224 24.5807 26.6834C25.0277 26.8443 25.4122 27.0738 25.7341 27.3718C26.0619 27.6639 26.3123 28.0066 26.4851 28.4001C26.6639 28.7935 26.7534 29.2226 26.7534 29.6876C26.7534 30.1525 26.6639 30.5817 26.4851 30.9751C26.3123 31.3685 26.0619 31.7142 25.7341 32.0122C25.4122 32.3043 25.0277 32.5308 24.5807 32.6918C24.1396 32.8527 23.6538 32.9332 23.1233 32.9332ZM23.1233 31.5026C23.4273 31.5026 23.7074 31.4579 23.9637 31.3685C24.2201 31.2731 24.4406 31.145 24.6254 30.984C24.8102 30.8171 24.9532 30.6234 25.0546 30.4028C25.1559 30.1823 25.2066 29.9439 25.2066 29.6876C25.2066 29.4313 25.1559 29.1928 25.0546 28.9723C24.9532 28.7517 24.8102 28.561 24.6254 28.4001C24.4406 28.2332 24.2171 28.105 23.9548 28.0156C23.6985 27.9202 23.4213 27.8725 23.1233 27.8725C22.8193 27.8725 22.5391 27.9202 22.2828 28.0156C22.0265 28.105 21.803 28.2302 21.6123 28.3911C21.4215 28.552 21.2755 28.7458 21.1741 28.9723C21.0788 29.1928 21.0311 29.4313 21.0311 29.6876C21.0311 29.9439 21.0788 30.1853 21.1741 30.4118C21.2755 30.6323 21.4215 30.8231 21.6123 30.984C21.803 31.145 22.0265 31.2731 22.2828 31.3685C22.5391 31.4579 22.8193 31.5026 23.1233 31.5026ZM29.3839 32.8438V26.585H32.406C32.9424 26.585 33.4193 26.6655 33.8365 26.8264C34.2598 26.9874 34.6204 27.2109 34.9184 27.497C35.2165 27.7831 35.443 28.1169 35.5979 28.4984C35.7589 28.8739 35.8393 29.2793 35.8393 29.7144C35.8393 30.1555 35.7589 30.5668 35.5979 30.9482C35.443 31.3238 35.2165 31.6546 34.9184 31.9407C34.6263 32.2209 34.2657 32.4414 33.8365 32.6023C33.4133 32.7633 32.9365 32.8438 32.406 32.8438H29.3839ZM30.9039 31.8066L30.6982 31.5026H32.3613C32.6772 31.5026 32.9544 31.4579 33.1928 31.3685C33.4372 31.2731 33.6369 31.145 33.7918 30.984C33.9528 30.8171 34.072 30.6264 34.1495 30.4118C34.2329 30.1912 34.2747 29.9588 34.2747 29.7144C34.2747 29.47 34.2329 29.2405 34.1495 29.0259C34.072 28.8113 33.9528 28.6236 33.7918 28.4626C33.6309 28.2957 33.4312 28.1646 33.1928 28.0692C32.9544 27.9739 32.6772 27.9262 32.3613 27.9262H30.6714L30.9039 27.6401V31.8066ZM41.6359 32.9332C41.1233 32.9332 40.6494 32.8557 40.2143 32.7007C39.7792 32.5457 39.3977 32.3252 39.0699 32.0391C38.742 31.747 38.4887 31.4042 38.3099 31.0108C38.131 30.6115 38.0416 30.1704 38.0416 29.6876C38.0416 29.2167 38.134 28.7845 38.3188 28.3911C38.5095 27.9977 38.7659 27.655 39.0877 27.3629C39.4156 27.0708 39.7971 26.8473 40.2322 26.6923C40.6733 26.5373 41.1472 26.4598 41.6538 26.4598C42.0055 26.4598 42.3482 26.5016 42.682 26.585C43.0158 26.6685 43.3228 26.7847 43.603 26.9337C43.8891 27.0827 44.1305 27.2526 44.3272 27.4434L43.4331 28.5878C43.2841 28.4507 43.1172 28.3285 42.9324 28.2212C42.7536 28.108 42.5539 28.0215 42.3333 27.9619C42.1128 27.8964 41.8654 27.8636 41.5912 27.8636C41.3349 27.8636 41.0876 27.9053 40.8491 27.9888C40.6167 28.0722 40.4051 28.1914 40.2143 28.3464C40.0295 28.5014 39.8805 28.6951 39.7673 28.9276C39.66 29.1541 39.6063 29.4134 39.6063 29.7054C39.6063 29.9916 39.6629 30.2508 39.7762 30.4833C39.8895 30.7098 40.0444 30.9035 40.2411 31.0645C40.4438 31.2195 40.6733 31.3387 40.9296 31.4221C41.1919 31.4996 41.469 31.5384 41.7611 31.5384C42.0413 31.5384 42.2916 31.5026 42.5122 31.4311C42.7327 31.3536 42.9324 31.2582 43.1112 31.145C43.29 31.0257 43.448 30.9125 43.5851 30.8052L44.3093 31.9765C44.1424 32.1314 43.9189 32.2834 43.6387 32.4325C43.3645 32.5755 43.0546 32.6947 42.7089 32.7901C42.3691 32.8855 42.0115 32.9332 41.6359 32.9332ZM45.9302 32.8438L48.7555 26.585H50.1235L52.9399 32.8438H51.3842L49.8284 29.3657C49.7688 29.2405 49.7122 29.1153 49.6586 28.9902C49.6109 28.859 49.5632 28.7309 49.5155 28.6057C49.4678 28.4746 49.4231 28.3464 49.3814 28.2212C49.3397 28.0901 49.3009 27.9649 49.2652 27.8457L49.5781 27.8368C49.5364 27.9739 49.4947 28.105 49.4529 28.2302C49.4112 28.3553 49.3635 28.4835 49.3099 28.6146C49.2622 28.7398 49.2115 28.865 49.1579 28.9902C49.1042 29.1153 49.0506 29.2435 48.9969 29.3746L47.4501 32.8438H45.9302ZM47.2534 31.6993L47.7362 30.5548H51.107L51.4289 31.6993H47.2534ZM55.1072 32.8438V26.585H58.3707C58.8297 26.585 59.229 26.6685 59.5688 26.8354C59.9086 27.0023 60.1708 27.2377 60.3556 27.5417C60.5464 27.8397 60.6417 28.1884 60.6417 28.5878C60.6417 28.9812 60.5404 29.3389 60.3377 29.6607C60.141 29.9767 59.8698 30.224 59.5241 30.4028C59.1843 30.5817 58.8029 30.6711 58.3796 30.6711H56.5557V32.8438H55.1072ZM59.2112 32.8438L57.3157 30.0184L58.8893 29.7949L60.9636 32.8438H59.2112ZM56.5557 29.5087H58.2187C58.3916 29.5087 58.5436 29.473 58.6747 29.4014C58.8118 29.3299 58.9191 29.2316 58.9966 29.1064C59.08 28.9753 59.1218 28.8262 59.1218 28.6593C59.1218 28.4924 59.0771 28.3494 58.9876 28.2302C58.9042 28.111 58.7909 28.0186 58.6479 27.953C58.5048 27.8874 58.3379 27.8546 58.1472 27.8546H56.5557V29.5087ZM63.5914 32.8438V26.585H64.9505L67.5523 30.1972L66.6403 30.1883L69.2511 26.585H70.5923V32.8438H69.117V30.841C69.117 30.3283 69.1289 29.8574 69.1528 29.4283C69.1766 28.9931 69.2243 28.555 69.2958 28.1139L69.4478 28.6057L67.3735 31.3238H66.7834L64.718 28.5968L64.8879 28.1139C64.9594 28.5431 65.0071 28.9723 65.0309 29.4014C65.0548 29.8306 65.0667 30.3105 65.0667 30.841V32.8438H63.5914ZM72.7536 32.8438L75.579 26.585H76.947L79.7634 32.8438H78.2077L76.6519 29.3657C76.5923 29.2405 76.5357 29.1153 76.4821 28.9902C76.4344 28.859 76.3867 28.7309 76.339 28.6057C76.2913 28.4746 76.2466 28.3464 76.2049 28.2212C76.1632 28.0901 76.1244 27.9649 76.0887 27.8457L76.4016 27.8368C76.3599 27.9739 76.3181 28.105 76.2764 28.2302C76.2347 28.3553 76.187 28.4835 76.1334 28.6146C76.0857 28.7398 76.035 28.865 75.9814 28.9902C75.9277 29.1153 75.8741 29.2435 75.8204 29.3746L74.2736 32.8438H72.7536ZM74.0769 31.6993L74.5597 30.5548H77.9305L78.2524 31.6993H74.0769ZM81.9307 32.8438V26.585H85.1942C85.6532 26.585 86.0525 26.6685 86.3923 26.8354C86.7321 27.0023 86.9943 27.2377 87.1791 27.5417C87.3698 27.8397 87.4652 28.1884 87.4652 28.5878C87.4652 28.9812 87.3639 29.3389 87.1612 29.6607C86.9645 29.9767 86.6933 30.224 86.3476 30.4028C86.0078 30.5817 85.6263 30.6711 85.2031 30.6711H83.3792V32.8438H81.9307ZM86.0347 32.8438L84.1392 30.0184L85.7128 29.7949L87.7871 32.8438H86.0347ZM83.3792 29.5087H85.0422C85.2151 29.5087 85.3671 29.473 85.4982 29.4014C85.6353 29.3299 85.7426 29.2316 85.8201 29.1064C85.9035 28.9753 85.9452 28.8262 85.9452 28.6593C85.9452 28.4924 85.9005 28.3494 85.8111 28.2302C85.7277 28.111 85.6144 28.0186 85.4714 27.953C85.3283 27.8874 85.1614 27.8546 84.9707 27.8546H83.3792V29.5087ZM91.461 31.1986L91.0944 29.9111L94.948 26.585H96.8346L91.461 31.1986ZM90.4149 32.8438V26.585H91.9349V32.8438H90.4149ZM95.0822 32.8438L92.5697 29.6786L93.5264 28.713L96.8972 32.8438H95.0822ZM99.3444 32.8438V26.585H104.405V27.8815H100.82V31.5473H104.494V32.8438H99.3444ZM100.113 30.2777V29.0438H104.003V30.2777H100.113ZM108.906 32.8438V27.9262H106.688V26.585H112.679V27.9262H110.426V32.8438H108.906Z" fill="url(#paint0_linear_831_11968)"/>
<rect x="0.745117" y="23.0977" width="111.763" height="1.49017" rx="0.745087" fill="url(#paint1_linear_831_11968)"/>
<rect x="0.745117" y="36.5098" width="111.763" height="1.49017" rx="0.745087" fill="url(#paint2_linear_831_11968)"/>
<path d="M36.7446 9.64093C35.9589 8.8552 34.8733 8.36909 33.6741 8.36909C32.4749 8.36909 31.3892 8.8552 30.6035 9.64093C29.8179 10.4267 29.3318 11.5123 29.3318 12.7116C29.3318 13.9105 29.8179 14.9962 30.6035 15.7819C31.3892 16.5677 32.4749 17.0538 33.6741 17.0538C34.8733 17.0538 35.9589 16.5677 36.7446 15.7819C37.5304 14.9962 38.0165 13.9105 38.0165 12.7116C38.0165 11.5123 37.5304 10.4267 36.7446 9.64093ZM33.6741 6.53534C35.3794 6.53534 36.9236 7.22686 38.0412 8.34441C39.1587 9.46196 39.8501 11.0062 39.8501 12.7116C39.8501 14.4168 39.1587 15.9609 38.0412 17.0786C36.9236 18.1962 35.3794 18.8877 33.6741 18.8877C31.9686 18.8877 30.4247 18.1962 29.3071 17.0786C28.1894 15.9609 27.498 14.4168 27.498 12.7116C27.498 11.0062 28.1894 9.46196 29.3071 8.34441C30.4247 7.22686 31.9686 6.53534 33.6741 6.53534Z" fill="#175152"/>
<path d="M88.4927 9.64093C87.7068 8.8552 86.6213 8.36909 85.4219 8.36909C84.2226 8.36909 83.1371 8.8552 82.3512 9.64093C81.5655 10.4267 81.0798 11.5123 81.0798 12.7116C81.0798 13.9105 81.5655 14.9962 82.3512 15.7819C83.1371 16.5677 84.2226 17.0538 85.4219 17.0538C86.621 17.0538 87.7068 16.5677 88.4927 15.7819C89.2781 14.9962 89.7641 13.9105 89.7641 12.7116C89.7641 11.5123 89.2781 10.4267 88.4927 9.64093ZM85.4219 6.53534C87.1273 6.53534 88.6713 7.22686 89.7891 8.34441C90.9066 9.46196 91.5978 11.0062 91.5978 12.7116C91.5978 14.4168 90.9066 15.9609 89.7891 17.0786C88.6713 18.1962 87.1273 18.8877 85.4219 18.8877C83.7166 18.8877 82.1722 18.1962 81.0548 17.0786C79.9373 15.9609 79.2461 14.4168 79.2461 12.7116C79.2461 11.0062 79.9373 9.46196 81.0548 8.34441C82.1722 7.22686 83.7166 6.53534 85.4219 6.53534Z" fill="#175152"/>
<path d="M15.9473 18.8877C26.325 18.6086 36.7057 18.4884 47.0872 18.4319C59.0249 18.3667 70.9662 18.4035 82.9033 18.5738C88.0216 18.6469 93.1391 18.7494 98.2561 18.8877C87.8784 19.1681 77.4977 19.2891 67.1164 19.3447C55.1784 19.4088 43.237 19.3711 31.3003 19.2C26.1818 19.1268 21.0643 19.0252 15.9473 18.8877Z" fill="#175152"/>
<path d="M25.142 7.85524C25.142 7.85524 22.2048 5.77907 20.8161 5.77907C19.4275 5.77907 10.1879 5.72556 3.72559 5.88578C9.92081 6.15287 19.0001 5.88578 19.7477 7.80845C21.4568 7.91532 25.142 7.85524 25.142 7.85524Z" fill="#175152"/>
<path d="M27.7995 8.18935C25.1515 8.02016 22.4873 8.07367 19.8359 8.14C20.2149 9.65106 20.7325 11.1043 21.404 12.5088C20.9255 11.1642 20.5255 9.8052 20.1953 8.41703C22.7292 8.42328 25.2745 8.40693 27.7995 8.18935Z" fill="#175152"/>
<path d="M66.7291 3.99055C65.0773 3.17422 63.7765 2.54246 62.1262 1.84886C60.4709 1.15317 58.6282 0.781294 57.4535 0.631967C56.6435 0.528944 52.9454 0.208982 51.9301 0.14233C50.0198 0.0168753 48.1859 -0.0105247 46.2712 0.00421619C46.0354 0.00597858 45.8309 0.0152731 45.6584 0.0296926C43.7586 0.0756769 41.8776 0.300629 40.0113 0.698622C38.6744 0.983818 37.3779 1.4185 36.0567 1.7665C34.7312 2.11563 33.3853 2.40034 32.0343 2.63187C29.767 3.02073 27.3899 3.27548 25.0802 3.69638C24.0594 3.88256 23.0388 4.0689 22.0185 4.25828C20.9557 4.45568 19.2931 5.06228 18.3457 4.39704C18.5242 5.66488 20.9056 5.00508 21.7631 4.89196C22.8025 4.75497 23.8415 4.6159 24.8805 4.47539C25.2913 4.41995 25.7026 4.3658 26.1141 4.3118C28.6738 4.13075 31.2266 3.8417 33.7948 3.78066C36.6053 3.71401 39.4036 3.82889 42.2056 4.04599C39.5339 3.21668 36.6495 2.97698 33.8564 3.02425C34.4872 2.87524 35.1154 2.71502 35.742 2.54759C37.0599 2.17844 38.3513 1.7021 39.6798 1.37508C41.7086 0.875507 43.7897 0.54032 45.8812 0.488729C45.8663 0.519171 45.8513 0.549294 45.8357 0.577653C45.5241 1.14484 45.2301 1.7218 44.942 2.30101C44.5961 3.00599 44.0939 3.79316 44.0329 4.59219C43.9778 5.29973 44.2529 6.02137 44.4535 6.68982C44.6398 7.31116 44.8447 7.9269 45.0639 8.53735C45.5186 9.80311 46.0237 11.0713 46.6918 12.2412C46.0455 10.9429 45.5736 9.55172 45.1386 8.17092C44.9127 7.45392 44.7004 6.73116 44.5166 6.00215C44.3485 5.33482 44.1958 4.69409 44.4474 4.02436C44.908 2.79769 45.6133 1.62951 46.2517 0.478953C46.8857 0.473666 47.5182 0.472386 48.1497 0.476552C51.5041 0.602967 54.7238 0.867495 58.0702 1.51816C59.8869 2.18821 60.8678 2.76789 62.5538 3.70808C63.9558 4.4898 65.558 5.57659 66.6595 6.26299C67.2403 6.26299 69.7238 6.03419 70.4848 5.90169C69.0361 5.18437 67.9597 4.59892 66.7291 3.99055Z" fill="#175152"/>
<path d="M61.0937 6.2373L62.7385 5.54322C57.4063 5.24056 53.6191 4.9794 47.9473 4.80508C52.9738 5.20451 55.7522 5.81448 60.7785 6.21199C60.8836 6.22032 60.9887 6.22881 61.0937 6.2373Z" fill="#175152"/>
<path d="M96.5345 15.8264C96.569 15.7644 96.6036 15.7026 96.6379 15.6406C97.011 14.97 97.3445 14.2801 97.6564 13.5801C97.7671 13.3316 97.8677 13.0818 97.9595 12.8256C98.0174 12.6636 98.1584 12.4352 98.1592 12.266C98.1605 11.9508 97.5361 11.5456 97.2836 11.3237C96.8388 10.9326 96.3777 10.5602 95.9077 10.1991C95.2226 9.67245 93.6174 8.4546 92.88 8.00213C91.7945 7.33576 90.4301 6.45197 88.4699 5.71351C86.4016 4.93403 84.4885 5.09986 82.2613 5.29357C78.8165 5.59334 76.6134 5.59334 72.7681 5.67345C70.1694 5.72761 66.8435 5.74956 64.3309 5.63292C64.0344 5.61657 63.7445 5.60055 63.4577 5.58453L63.4109 6.07401L62.9766 6.39157C65.7691 6.61909 68.5562 6.82577 71.3669 6.75912C74.344 6.68846 77.9087 6.44781 81.033 6.04725C82.3601 5.8771 82.9781 5.63708 83.9878 5.56066C84.4528 5.46484 84.9325 5.41405 85.4223 5.41405C86.8524 5.41405 88.1969 5.84537 89.3335 6.58047C90.1389 7.04736 91.0319 7.65941 92.0177 8.35366C93.824 9.62566 95.8401 11.3614 96.8256 12.2713C96.5744 13.7113 96.2722 14.9096 95.624 16.1837C95.5673 16.2882 95.5272 16.3808 95.4997 16.4435C95.6358 16.4503 95.735 16.4435 95.8611 16.4359L98.1235 16.4084L97.4291 16.0879L96.5345 15.8264Z" fill="#175152"/>
<path d="M78.125 12.7119C78.1876 10.6938 78.8534 8.75666 80.3692 7.35375C81.6834 6.13782 83.2941 5.44102 85.0894 5.33399C87.0747 5.21574 89.0919 6.01013 90.5152 7.3858C91.9923 8.81386 92.6594 10.6942 92.7198 12.7119C92.5795 10.7135 91.883 8.84286 90.3766 7.46046C88.9501 6.15112 87.0398 5.41362 85.095 5.5208C83.4157 5.61341 81.8441 6.237 80.5887 7.3576C79.0142 8.76291 78.2705 10.6425 78.125 12.7119Z" fill="#175152"/>
<path d="M26.373 12.7119C26.4347 10.6938 27.1021 8.75666 28.6173 7.35375C29.9311 6.1375 31.5426 5.44086 33.3374 5.33399C35.3228 5.21574 37.3398 6.01013 38.7632 7.3858C40.2409 8.81434 40.9064 10.6941 40.9679 12.7119C40.8264 10.7133 40.1315 8.84334 38.6248 7.46046C37.1982 6.15112 35.2878 5.41362 33.3431 5.5208C31.6636 5.61341 30.0921 6.23716 28.8366 7.3576C27.2623 8.76259 26.5182 10.6428 26.373 12.7119Z" fill="#175152"/>
<path d="M76.4932 7.75551L73.0808 13.9113L72.0137 14.6592H73.3756L76.4932 7.75551Z" fill="#175152"/>
<path d="M73.6465 7.92866L70.3007 13.8974L69.3838 14.6455H70.5954L73.6465 7.92866Z" fill="#175152"/>
<path d="M70.6837 8.13967L67.5771 13.8974L66.6602 14.6455H67.8718L70.6837 8.13967Z" fill="#175152"/>
<path d="M63.4104 6.0738L63.8885 4.84713C63.8885 4.84713 63.4264 4.11107 62.9299 3.95085C62.4332 3.79063 61.0605 3.95085 61.0605 3.95085L61.1725 4.17612C61.1725 4.17612 61.4709 4.54303 61.9677 4.69861C62.4644 4.85418 63.2444 4.88543 63.2444 4.88543L62.7536 6.18066L63.4104 6.0738Z" fill="#175152"/>
<defs>
<linearGradient id="paint0_linear_831_11968" x1="0" y1="30.3438" x2="114" y2="30.3438" gradientUnits="userSpaceOnUse">
<stop stop-color="#175152"/>
<stop offset="0.423077" stop-color="#175152"/>
<stop offset="1" stop-color="#34B6B8"/>
</linearGradient>
<linearGradient id="paint1_linear_831_11968" x1="0.745117" y1="23.8427" x2="112.508" y2="23.8427" gradientUnits="userSpaceOnUse">
<stop stop-color="#175152"/>
<stop offset="1" stop-color="#34B6B8"/>
</linearGradient>
<linearGradient id="paint2_linear_831_11968" x1="0.745117" y1="37.2549" x2="112.508" y2="37.2549" gradientUnits="userSpaceOnUse">
<stop stop-color="#175152"/>
<stop offset="1" stop-color="#34B6B8"/>
</linearGradient>
</defs>
</svg>
